Coordinates
version=1
nRows=19
nColumns=63
inDegrees=yes

Units are S.I. units (second, meters, Newtons, ...)
If the header above contains a line with 'inDegrees', this indicates whether rotational values are in degrees (yes) or radians (no).

endheader
time	pelvis_tilt	pelvis_list	pelvis_rotation	pelvis_tx	pelvis_ty	pelvis_tz	hip_flexion_r	hip_adduction_r	hip_rotation_r	knee_angle_r	knee_angle_r_beta	ankle_angle_r	subtalar_angle_r	mtp_angle_r	hip_flexion_l	hip_adduction_l	hip_rotation_l	knee_angle_l	knee_angle_l_beta	ankle_angle_l	subtalar_angle_l	mtp_angle_l	L5_S1_Flex_Ext	L5_S1_Lat_Bending	L5_S1_axial_rotation	L4_L5_Flex_Ext	L4_L5_Lat_Bending	L4_L5_axial_rotation	L3_L4_Flex_Ext	L3_L4_Lat_Bending	L3_L4_axial_rotation	L2_L3_Flex_Ext	L2_L3_Lat_Bending	L2_L3_axial_rotation	L1_L2_Flex_Ext	L1_L2_Lat_Bending	L1_L2_axial_rotation	L1_T12_Flex_Ext	L1_T12_Lat_Bending	L1_T12_axial_rotation	Abs_r3	Abs_r2	Abs_r1	Abs_t1	Abs_t2	neck_flexion	neck_bending	neck_rotation	arm_flex_r	arm_add_r	arm_rot_r	elbow_flex_r	pro_sup_r	wrist_flex_r	wrist_dev_r	arm_flex_l	arm_add_l	arm_rot_l	elbow_flex_l	pro_sup_l	wrist_flex_l	wrist_dev_l
1.816667	4.295955	-6.364931	99.224041	0.107089	1.065962	-0.123726	-6.572430	2.057506	8.555279	1.683273	0.029379	27.826375	-15.921284	0.000000	-6.043641	-2.031219	13.555001	0.428325	0.007476	32.120152	-3.791654	0.000000	-0.286046	0.234986	-1.121599	-0.531215	0.312532	-1.191699	-0.469944	0.571346	-1.191699	-0.326922	0.571346	-0.981399	-0.265622	0.479184	-0.911299	-0.163446	0.363994	-0.841199	-2.043195	2.658213	-6.237996	0.000000	0.000000	16.271882	-1.207672	6.277336	1.573827	-10.267112	131.099299	1.748810	3.812212	-2.091793	-5.774591	-1.164265	-10.970783	129.417233	7.403974	45.359831	-5.182467	-1.354172
1.833333	4.274496	-6.353714	98.927140	0.107615	1.065971	-0.124244	-6.598666	2.016053	8.875365	1.663394	0.029032	27.818637	-15.924341	0.000000	-6.164175	-1.988588	13.726388	0.425730	0.007430	31.795931	-4.564903	0.000000	-0.280825	0.231528	-1.041312	-0.521520	0.307933	-1.106394	-0.461368	0.562938	-1.106394	-0.320955	0.562938	-0.911148	-0.260774	0.472133	-0.846066	-0.160463	0.358637	-0.780984	-2.005905	2.619095	-5.791464	0.000000	0.000000	16.086129	-1.158626	6.335671	1.415949	-10.243349	130.612540	1.738484	3.699565	-2.310312	-5.978708	-0.884696	-10.835060	131.615764	7.205459	46.745104	-4.967780	-1.140386
1.850000	4.245471	-6.329748	98.611398	0.108138	1.066004	-0.124847	-6.650263	1.961822	9.125475	1.616559	0.028214	27.872041	-15.792284	0.000000	-6.297093	-1.934227	13.752168	0.422175	0.007368	31.543560	-5.156886	0.000000	-0.276826	0.228377	-0.957050	-0.514093	0.303742	-1.016866	-0.454797	0.555277	-1.016866	-0.316384	0.555277	-0.837419	-0.257061	0.465707	-0.777603	-0.158178	0.353757	-0.717787	-1.977340	2.583450	-5.322824	0.000000	0.000000	15.913333	-1.090805	6.517267	1.233140	-10.234975	129.347004	1.850602	3.601585	-2.486700	-6.186054	-0.625760	-10.686937	133.672618	6.997481	48.083997	-4.736215	-0.918427
1.866667	4.216363	-6.299764	98.233414	0.108700	1.066057	-0.125501	-6.706804	1.898304	9.460687	1.567150	0.027352	27.935423	-15.678611	0.000000	-6.435626	-1.868053	13.678072	0.419000	0.007313	31.329605	-5.692409	0.000000	-0.273723	0.226146	-0.859199	-0.508332	0.300775	-0.912899	-0.449700	0.549853	-0.912899	-0.312839	0.549853	-0.751799	-0.254180	0.461158	-0.698100	-0.156406	0.350301	-0.644400	-1.955179	2.558214	-4.778609	0.000000	0.000000	15.767360	-1.057025	6.723563	1.027583	-10.234099	127.802911	1.983991	3.461936	-2.576855	-6.414014	-0.404778	-10.559126	135.277893	6.832790	48.904323	-4.509457	-0.705037
1.883333	4.186164	-6.259406	97.830963	0.109267	1.066125	-0.126204	-6.780228	1.829184	9.815021	1.513305	0.026412	27.984545	-15.558178	0.000000	-6.581965	-1.795649	13.558673	0.416317	0.007266	31.161341	-6.183258	0.000000	-0.272062	0.224616	-0.758854	-0.505246	0.298739	-0.806282	-0.446970	0.546130	-0.806282	-0.310939	0.546130	-0.663997	-0.252637	0.458036	-0.616569	-0.155456	0.347929	-0.569140	-1.943311	2.540896	-4.220518	0.000000	0.000000	15.643103	-1.042020	6.991587	0.813267	-10.235710	125.766923	2.156254	3.280936	-2.544550	-6.661765	-0.234098	-10.453251	136.435205	6.709423	49.267587	-4.288890	-0.484414
1.900000	4.158873	-6.211605	97.396268	0.109850	1.066206	-0.126934	-6.858746	1.758295	10.214407	1.474530	0.025735	28.006222	-15.466008	0.000000	-6.732232	-1.720028	13.344748	0.418027	0.007296	31.033221	-6.578228	0.000000	-0.271787	0.223789	-0.654541	-0.504735	0.297639	-0.695450	-0.446519	0.544120	-0.695450	-0.310625	0.544120	-0.572723	-0.252381	0.456350	-0.531814	-0.155299	0.346649	-0.490906	-1.941347	2.531541	-3.640360	0.000000	0.000000	15.533445	-1.066790	7.250655	0.603779	-10.239890	123.428673	2.343307	3.027978	-2.382020	-6.931229	-0.138054	-10.390185	136.907537	6.650899	48.949128	-4.099888	-0.296826
1.916667	4.120557	-6.161245	96.956096	0.110438	1.066305	-0.127684	-6.937719	1.676266	10.630476	1.457929	0.025446	27.990447	-15.422121	0.000000	-6.878888	-1.628639	13.173216	0.432142	0.007542	30.883142	-7.045908	0.000000	-0.272485	0.221349	-0.551082	-0.506032	0.294394	-0.585525	-0.447666	0.538187	-0.585525	-0.311423	0.538187	-0.482197	-0.253030	0.451374	-0.447754	-0.155698	0.342869	-0.413312	-1.946334	2.503942	-3.064953	0.000000	0.000000	15.421258	-1.126745	7.457683	0.405602	-10.230650	120.953637	2.521979	2.784370	-2.183354	-7.235748	-0.105438	-10.386086	136.782741	6.655699	48.076596	-3.969883	-0.180327
1.933333	4.076496	-6.111667	96.505021	0.111048	1.066420	-0.128451	-7.006814	1.588828	11.062857	1.473398	0.025716	27.951304	-15.413581	0.000000	-7.016252	-1.530226	12.872934	0.467938	0.008167	30.750425	-7.358859	0.000000	-0.274087	0.217422	-0.446729	-0.509007	0.289172	-0.474650	-0.450298	0.528640	-0.474650	-0.313254	0.528640	-0.390888	-0.254517	0.443367	-0.362967	-0.156613	0.336787	-0.335047	-1.957778	2.459524	-2.484574	0.000000	0.000000	15.307387	-1.200706	7.605603	0.233382	-10.212366	118.707015	2.662555	2.503179	-1.967575	-7.557387	-0.114327	-10.434322	136.215708	6.717902	46.803887	-3.898753	-0.114882
1.950000	4.031441	-6.064832	96.055670	0.111669	1.066549	-0.129236	-7.063112	1.503515	11.500453	1.522216	0.026568	27.893461	-15.448274	0.000000	-7.141204	-1.431024	12.485610	0.528709	0.009228	30.626620	-7.574076	0.000000	-0.276756	0.212244	-0.340426	-0.513963	0.282285	-0.361703	-0.454682	0.516050	-0.361703	-0.316304	0.516050	-0.297873	-0.256995	0.432808	-0.276597	-0.158138	0.328766	-0.255320	-1.976837	2.400948	-1.893350	0.000000	0.000000	15.192103	-1.280330	7.679049	0.093789	-10.187257	116.982406	2.736559	2.226245	-1.776296	-7.862154	-0.130968	-10.513003	135.457567	6.802084	45.436079	-3.863820	-0.076333
1.966667	3.981720	-6.023774	95.624245	0.112298	1.066698	-0.130022	-7.090195	1.418882	11.822386	1.637870	0.028586	27.881220	-15.363112	0.000000	-7.239101	-1.328747	11.931989	0.635861	0.011098	30.534290	-7.581632	0.000000	-0.280501	0.204740	-0.232456	-0.520919	0.272304	-0.246985	-0.460835	0.497804	-0.246985	-0.320585	0.497804	-0.203399	-0.260473	0.417505	-0.188871	-0.160278	0.317142	-0.174342	-2.003592	2.316057	-1.292851	0.000000	0.000000	15.068430	-1.343160	7.661904	0.012895	-10.163446	115.831195	2.797763	2.190813	-1.741109	-8.118248	-0.128940	-10.611656	134.663693	6.886776	44.225178	-3.826899	-0.020798
1.983333	3.937741	-5.997335	95.213711	0.112916	1.066834	-0.130855	-7.096750	1.349400	12.223056	1.794552	0.031321	27.821987	-15.431246	0.000000	-7.315248	-1.235685	11.341049	0.761603	0.013292	30.450062	-7.555270	0.000000	-0.284165	0.196493	-0.122613	-0.527722	0.261335	-0.130277	-0.466854	0.477753	-0.130277	-0.324772	0.477753	-0.107287	-0.263875	0.400688	-0.099623	-0.162372	0.304367	-0.091960	-2.029760	2.222766	-0.681938	0.000000	0.000000	14.960917	-1.399331	7.564672	-0.023688	-10.136829	115.797372	2.752800	2.228187	-1.818370	-8.276413	-0.122894	-10.700170	134.162707	6.878641	43.025554	-3.784811	-0.051331
2.000000	3.888444	-5.988117	94.842724	0.113463	1.066967	-0.131703	-7.082498	1.280009	12.634958	1.993549	0.034794	27.749051	-15.528425	0.000000	-7.361068	-1.140368	10.662874	0.904110	0.015780	30.399408	-7.378302	0.000000	-0.288332	0.187024	-0.009040	-0.535462	0.248742	-0.009605	-0.473701	0.454730	-0.009605	-0.329535	0.454730	-0.007910	-0.267745	0.381380	-0.007345	-0.164753	0.289700	-0.006780	-2.059529	2.115654	-0.050277	0.000000	0.000000	14.861935	-1.451714	7.364661	-0.016058	-10.117097	116.604683	2.643243	2.470902	-2.037648	-8.337206	-0.067898	-10.775254	133.914742	6.805599	42.070503	-3.739313	-0.092646
2.016667	3.847839	-5.990367	94.509505	0.113931	1.067120	-0.132578	-7.044697	1.228226	13.012510	2.250384	0.039277	27.640066	-15.638786	0.000000	-7.381070	-1.055072	9.986342	1.061967	0.018535	30.350660	-7.193138	0.000000	-0.294106	0.178274	0.108775	-0.546184	0.237105	0.115573	-0.483186	0.433456	0.115573	-0.336134	0.433456	0.095178	-0.273107	0.363537	0.088380	-0.168052	0.276147	0.081581	-2.100768	2.016673	0.604973	0.000000	0.000000	14.772018	-1.526300	7.030167	0.038622	-10.106189	118.148658	2.482589	3.030055	-2.458658	-8.253906	0.034526	-10.804482	133.939821	6.619450	41.719263	-3.700190	-0.079355
2.033333	3.822076	-6.017501	94.241559	0.114281	1.067279	-0.133447	-6.966618	1.202756	13.355121	2.565942	0.044784	27.495360	-15.781811	0.000000	-7.351016	-0.990450	9.254083	1.238128	0.021609	30.343587	-6.857056	0.000000	-0.300192	0.171544	0.216486	-0.557487	0.228154	0.230016	-0.493186	0.417092	0.230016	-0.343090	0.417092	0.189425	-0.278759	0.349813	0.175895	-0.171530	0.265722	0.162365	-2.144245	1.940540	1.204030	0.000000	0.000000	14.708071	-1.600673	6.638074	0.170282	-10.109688	120.594751	2.267942	3.707072	-2.990755	-7.982433	0.142942	-10.815350	134.153427	6.340082	41.467161	-3.702978	-0.110222
2.050000	3.814589	-6.065176	93.984971	0.114567	1.067474	-0.134323	-6.851940	1.199309	13.715452	2.926775	0.051082	27.300956	-15.957919	0.000000	-7.281376	-0.945936	8.475548	1.431344	0.024982	30.338706	-6.437699	0.000000	-0.306653	0.167832	0.322578	-0.569485	0.223216	0.342739	-0.503800	0.408066	0.342739	-0.350473	0.408066	0.282255	-0.284758	0.342243	0.262094	-0.175221	0.259972	0.241933	-2.190390	1.898547	1.794080	0.000000	0.000000	14.649551	-1.661773	6.224292	0.340189	-10.134738	123.548082	2.020841	4.239240	-3.610360	-7.666344	0.267221	-10.793945	134.623260	5.957240	41.564027	-3.698928	-0.204093
2.066667	3.822435	-6.123557	93.785765	0.114731	1.067749	-0.135190	-6.712004	1.219597	14.043682	3.321658	0.057974	27.058765	-16.163563	0.000000	-7.178685	-0.924882	7.675309	1.633327	0.028507	30.335260	-5.898420	0.000000	-0.313532	0.166855	0.404088	-0.582259	0.221917	0.429344	-0.515101	0.405691	0.429344	-0.358335	0.405691	0.353577	-0.291145	0.340251	0.328322	-0.179152	0.258458	0.303066	-2.239525	1.887496	2.247416	0.000000	0.000000	14.552929	-1.710537	5.834138	0.579826	-10.173763	126.960932	1.745380	4.692696	-4.231234	-7.235308	0.355098	-10.758523	135.187506	5.498562	41.576857	-3.621002	-0.354674
2.083333	3.843959	-6.196772	93.609517	0.114844	1.068137	-0.136024	-6.538214	1.257333	14.350213	3.734720	0.065183	26.756411	-16.391418	0.000000	-7.041242	-0.922568	6.925079	1.843514	0.032175	30.307488	-5.347455	0.000000	-0.319423	0.168114	0.465917	-0.593201	0.223592	0.495037	-0.524781	0.408753	0.495037	-0.365069	0.408753	0.407677	-0.296616	0.342818	0.378557	-0.182518	0.260409	0.349438	-2.281609	1.901740	2.591290	0.000000	0.000000	14.417146	-1.689755	5.533373	0.850523	-10.236164	130.225297	1.496664	5.037537	-4.843724	-6.958943	0.409022	-10.709731	135.605737	4.981491	41.960905	-3.492835	-0.654495
2.100000	3.878047	-6.279692	93.503237	0.114878	1.068676	-0.136783	-6.335661	1.318162	14.568431	4.151615	0.072459	26.403775	-16.651217	0.000000	-6.868395	-0.946259	6.206416	2.057824	0.035916	30.270913	-4.689339	0.000000	-0.324176	0.171023	0.492731	-0.602027	0.227461	0.523527	-0.532589	0.415826	0.523527	-0.370501	0.415826	0.431140	-0.301030	0.348751	0.400344	-0.185234	0.264915	0.369548	-2.315558	1.934650	2.740423	0.000000	0.000000	14.249529	-1.654882	5.303772	1.161068	-10.312945	133.459201	1.240588	5.263479	-5.263429	-6.879913	0.393446	-10.670364	136.296925	4.419708	41.795143	-3.301126	-1.125196
2.116667	3.920836	-6.362007	93.414097	0.114913	1.069396	-0.137530	-6.128551	1.387900	14.722316	4.541509	0.079264	26.040978	-16.831437	0.000000	-6.688312	-0.986056	5.485864	2.264784	0.039528	30.230902	-3.957487	0.000000	-0.326297	0.175021	0.495171	-0.605967	0.232778	0.526119	-0.536074	0.425547	0.526119	-0.372925	0.425547	0.433274	-0.303000	0.356903	0.402326	-0.186446	0.271108	0.371378	-2.330709	1.979875	2.753990	0.000000	0.000000	14.020039	-1.543619	5.234032	1.476911	-10.413677	136.219609	1.051624	5.363652	-5.515391	-7.145931	0.288898	-10.638379	137.294590	3.810873	40.968161	-3.010525	-1.905152
